<?xml version="1.0" encoding="UTF-8" standalone="no"?>
<!-- Created with Inkscape (http://www.inkscape.org/) -->

<svg
   width="73.518753mm"
   height="80.307808mm"
   viewBox="0 0 73.518753 80.307808"
   version="1.1"
   id="svg1"
   xml:space="preserve"
   inkscape:version="1.3 (0e150ed6c4, 2023-07-21)"
   sodipodi:docname="Bedrock.svg"
   xmlns:inkscape="http://www.inkscape.org/namespaces/inkscape"
   xmlns:sodipodi="http://sodipodi.sourceforge.net/DTD/sodipodi-0.dtd"
   xmlns="http://www.w3.org/2000/svg"
   xmlns:svg="http://www.w3.org/2000/svg"><sodipodi:namedview
     id="namedview1"
     pagecolor="#ffffff"
     bordercolor="#000000"
     borderopacity="0.25"
     inkscape:showpageshadow="2"
     inkscape:pageopacity="0.0"
     inkscape:pagecheckerboard="0"
     inkscape:deskcolor="#d1d1d1"
     inkscape:document-units="mm"
     inkscape:zoom="2.7937149"
     inkscape:cx="141.56777"
     inkscape:cy="146.0421"
     inkscape:window-width="2560"
     inkscape:window-height="1369"
     inkscape:window-x="-8"
     inkscape:window-y="-8"
     inkscape:window-maximized="1"
     inkscape:current-layer="layer1" /><defs
     id="defs1" /><g
     inkscape:label="Layer 1"
     inkscape:groupmode="layer"
     id="layer1"
     transform="translate(-81.066213,-176.27152)"><g
       id="g16"><path
         style="fill:#868b85;fill-opacity:1"
         d="m 116.31128,256.52103 c -1.65103,-0.30988 -3.4237,-1.17183 -17.991665,-8.74824 -17.859895,-9.28845 -18.316923,-9.62444 -16.402405,-12.05835 0.476835,-0.6062 7.297944,-4.42349 7.904325,-4.42349 0.136342,0 5.49919,2.7404 11.917435,6.08978 17.25978,9.00705 14.76584,9.01529 32.16257,-0.1063 l 11.85675,-6.21684 3.4666,1.81544 c 5.01225,2.62488 6.03901,4.03131 4.3265,5.92634 -0.57447,0.6357 -30.92636,16.71098 -32.6787,17.30764 -1.03132,0.35115 -3.63651,0.58761 -4.56141,0.41402 z"
         id="path16" /><path
         style="fill:#998468;fill-opacity:1"
         d="m 115.64982,235.61105 c -1.17582,-0.25874 -2.71856,-1.02649 -17.594789,-8.75613 -17.775088,-9.23588 -18.270279,-9.60801 -16.073437,-12.07908 1.140416,-1.28277 7.623731,-4.46345 8.393936,-4.11802 0.367424,0.16479 5.668668,2.89919 11.78054,6.07645 16.82591,8.74693 14.40158,8.7688 31.65677,-0.28556 6.35164,-3.33291 11.68139,-6.05984 11.84389,-6.05984 0.57194,0 7.2306,3.47908 7.85641,4.10489 2.45768,2.45768 2.01168,2.80051 -15.92974,12.24467 -17.51308,9.21869 -18.51638,9.62455 -21.93358,8.87262 z"
         id="path15" /><path
         style="fill:#63805e;fill-opacity:1"
         d="m 114.67286,214.51471 c -2.17741,-0.7775 -31.864556,-16.39159 -32.558974,-17.12454 -2.385933,-2.51833 -1.888459,-2.91129 14.618229,-11.54723 19.715095,-10.31451 17.743155,-9.38876 20.300955,-9.53046 3.26252,-0.18074 3.35612,-0.14085 20.09846,8.56572 22.42885,11.66375 22.40723,9.52744 0.21413,21.1624 -18.22977,9.55715 -18.91866,9.81462 -22.6728,8.47411 z"
         id="path14" /></g></g></svg>
